<?xml version="1.0" encoding="UTF-8"?>
<svg xmlns="http://www.w3.org/2000/svg" xmlns:xlink="http://www.w3.org/1999/xlink" width="539pt" height="165pt" viewBox="0 0 539 165" version="1.1">
<g id="surface1">
<path style=" stroke:none;fill-rule:nonzero;fill:rgb(0%,0%,0%);fill-opacity:1;" d="M 435.164062 72.199219 C 439.523438 67.320312 445.902344 64.253906 452.996094 64.253906 C 466.101562 64.253906 476.777344 74.753906 476.777344 87.734375 L 476.777344 122.429688 L 464.886719 122.429688 L 464.886719 87.734375 C 464.886719 81.363281 459.589844 76.152344 452.996094 76.152344 C 446.40625 76.152344 441.109375 81.363281 441.109375 87.734375 L 441.109375 122.429688 L 429.21875 122.429688 L 429.21875 87.734375 C 429.21875 81.363281 423.921875 76.152344 417.328125 76.152344 C 410.738281 76.152344 405.4375 81.363281 405.4375 87.734375 L 405.4375 122.429688 L 393.550781 122.429688 L 393.550781 87.734375 C 393.550781 74.738281 404.222656 64.253906 417.328125 64.253906 C 424.421875 64.253906 430.804688 67.320312 435.164062 72.199219 Z M 435.164062 72.199219 "/>
<path style=" stroke:none;fill-rule:nonzero;fill:rgb(0%,0%,0%);fill-opacity:1;" d="M 345.699219 122.429688 C 337.71875 122.429688 330.878906 119.585938 325.195312 113.886719 C 319.503906 108.1875 316.664062 101.351562 316.664062 93.367188 C 316.664062 85.34375 319.503906 78.480469 325.195312 72.796875 C 330.890625 67.097656 337.71875 64.253906 345.699219 64.253906 C 353.746094 64.253906 359.453125 65.933594 362.808594 69.292969 L 362.808594 64.253906 L 374.777344 64.253906 L 374.777344 122.429688 L 362.808594 122.429688 L 362.808594 117.390625 C 359.453125 120.75 353.757812 122.429688 345.699219 122.429688 Z M 345.4375 76.023438 C 340.71875 76.023438 336.675781 77.726562 333.292969 81.125 C 329.953125 84.496094 328.289062 88.570312 328.289062 93.367188 C 328.289062 98.167969 329.953125 102.238281 333.292969 105.609375 C 336.636719 108.980469 340.679688 110.660156 345.4375 110.660156 C 350.191406 110.660156 354.246094 108.980469 357.628906 105.609375 C 360.972656 102.238281 362.636719 98.167969 362.636719 93.367188 C 362.636719 88.570312 360.972656 84.496094 357.628906 81.125 C 354.246094 77.726562 350.191406 76.023438 345.4375 76.023438 Z M 345.4375 76.023438 "/>
<path style=" stroke:none;fill-rule:nonzero;fill:rgb(0%,0%,0%);fill-opacity:1;" d="M 275.539062 64.253906 C 283.542969 64.253906 290.386719 67.097656 296.09375 72.796875 C 301.800781 78.492188 304.640625 85.328125 304.640625 93.316406 L 304.535156 97.015625 L 258.800781 97.015625 C 259.25 99.832031 260.964844 102.792969 263.953125 105.914062 C 267.214844 108.929688 271.070312 110.4375 275.539062 110.4375 C 278.734375 110.4375 281.71875 109.5625 284.496094 107.820312 C 287.136719 106.246094 289.476562 103.480469 291.496094 99.542969 L 302.566406 104.328125 C 299.476562 110.503906 295.632812 115.023438 291.035156 117.90625 C 286.332031 120.921875 281.164062 122.429688 275.523438 122.429688 C 267.519531 122.429688 260.675781 119.585938 254.96875 113.886719 C 249.234375 108.1875 246.367188 101.339844 246.367188 93.316406 C 246.367188 85.328125 249.234375 78.480469 254.96875 72.796875 C 260.6875 67.097656 267.53125 64.253906 275.539062 64.253906 Z M 291.429688 85.410156 C 290.519531 83.570312 288.734375 81.613281 286.078125 79.566406 C 282.910156 77.289062 279.382812 76.152344 275.484375 76.152344 C 271.546875 76.152344 268.019531 77.289062 264.890625 79.566406 C 262.300781 81.652344 260.542969 83.609375 259.59375 85.410156 Z M 291.429688 85.410156 "/>
<path style=" stroke:none;fill-rule:nonzero;fill:rgb(0%,0%,0%);fill-opacity:1;" d="M 212.03125 64.519531 L 226.566406 64.519531 L 226.566406 76.417969 L 212.03125 76.417969 L 212.03125 98.945312 C 212.03125 105.320312 217.382812 110.527344 224.054688 110.527344 L 235.8125 110.527344 L 235.8125 122.429688 L 224.054688 122.429688 C 210.882812 122.429688 200.144531 111.945312 200.144531 98.945312 L 200.144531 46.933594 L 212.03125 46.933594 Z M 212.03125 64.519531 "/>
<path style=" stroke:none;fill-rule:nonzero;fill:rgb(0%,0%,0%);fill-opacity:1;" d="M 157.867188 122.558594 L 157.867188 87.867188 C 157.867188 74.777344 146.546875 64.386719 132.835938 64.386719 C 119.121094 64.386719 107.800781 74.777344 107.800781 87.867188 L 107.800781 122.558594 L 119.691406 122.558594 L 119.691406 87.867188 C 119.691406 81.585938 125.460938 76.285156 132.835938 76.285156 C 140.207031 76.285156 145.980469 81.585938 145.980469 87.867188 L 145.980469 122.558594 Z M 157.867188 122.558594 "/>
<path style=" stroke:none;fill-rule:nonzero;fill:rgb(0%,0%,0%);fill-opacity:1;" d="M 77.21875 64.386719 L 77.21875 122.558594 L 89.105469 122.558594 L 89.105469 64.386719 Z M 77.21875 64.386719 "/>
<path style=" stroke:none;fill-rule:evenodd;fill:rgb(2.745098%,78.823529%,44.705882%);fill-opacity:1;" d="M 91.683594 47.199219 C 91.683594 52.3125 87.542969 56.453125 82.433594 56.453125 C 77.328125 56.453125 73.1875 52.3125 73.1875 47.199219 C 73.1875 42.089844 77.328125 37.945312 82.433594 37.945312 C 87.542969 37.945312 91.683594 42.089844 91.683594 47.199219 Z M 91.683594 47.199219 "/>
</g>
</svg>
