<?xml version="1.0" encoding="UTF-8"?>
<svg xmlns="http://www.w3.org/2000/svg" xmlns:xlink="http://www.w3.org/1999/xlink" width="150px" height="46px" viewBox="0 0 150 46" version="1.1">
<g id="surface1">
<path style=" stroke:none;fill-rule:nonzero;fill:rgb(0%,0%,0%);fill-opacity:1;" d="M 121.058594 20.152344 C 122.269531 18.789062 124.046875 17.933594 126.019531 17.933594 C 129.664062 17.933594 132.632812 20.867188 132.632812 24.488281 L 132.632812 34.171875 L 129.328125 34.171875 L 129.328125 24.488281 C 129.328125 22.710938 127.851562 21.257812 126.019531 21.257812 C 124.1875 21.257812 122.710938 22.710938 122.710938 24.488281 L 122.710938 34.171875 L 119.40625 34.171875 L 119.40625 24.488281 C 119.40625 22.710938 117.929688 21.257812 116.097656 21.257812 C 114.261719 21.257812 112.789062 22.710938 112.789062 24.488281 L 112.789062 34.171875 L 109.480469 34.171875 L 109.480469 24.488281 C 109.480469 20.863281 112.449219 17.933594 116.097656 17.933594 C 118.070312 17.933594 119.84375 18.789062 121.058594 20.152344 Z M 121.058594 20.152344 "/>
<path style=" stroke:none;fill-rule:nonzero;fill:rgb(0%,0%,0%);fill-opacity:1;" d="M 96.171875 34.171875 C 93.949219 34.171875 92.046875 33.378906 90.464844 31.789062 C 88.882812 30.199219 88.09375 28.289062 88.09375 26.0625 C 88.09375 23.820312 88.882812 21.90625 90.464844 20.320312 C 92.050781 18.730469 93.949219 17.933594 96.171875 17.933594 C 98.410156 17.933594 99.996094 18.402344 100.929688 19.339844 L 100.929688 17.933594 L 104.257812 17.933594 L 104.257812 34.171875 L 100.929688 34.171875 L 100.929688 32.765625 C 99.996094 33.703125 98.410156 34.171875 96.171875 34.171875 Z M 96.097656 21.21875 C 94.785156 21.21875 93.660156 21.695312 92.71875 22.644531 C 91.789062 23.585938 91.328125 24.722656 91.328125 26.0625 C 91.328125 27.402344 91.789062 28.539062 92.71875 29.476562 C 93.648438 30.417969 94.773438 30.886719 96.097656 30.886719 C 97.417969 30.886719 98.546875 30.417969 99.488281 29.476562 C 100.417969 28.539062 100.882812 27.402344 100.882812 26.0625 C 100.882812 24.722656 100.417969 23.585938 99.488281 22.644531 C 98.546875 21.695312 97.417969 21.21875 96.097656 21.21875 Z M 96.097656 21.21875 "/>
<path style=" stroke:none;fill-rule:nonzero;fill:rgb(0%,0%,0%);fill-opacity:1;" d="M 76.652344 17.933594 C 78.878906 17.933594 80.78125 18.730469 82.371094 20.320312 C 83.957031 21.910156 84.746094 23.816406 84.746094 26.046875 L 84.71875 27.078125 L 71.996094 27.078125 C 72.121094 27.867188 72.597656 28.691406 73.429688 29.5625 C 74.335938 30.40625 75.410156 30.824219 76.652344 30.824219 C 77.542969 30.824219 78.371094 30.582031 79.144531 30.09375 C 79.878906 29.65625 80.53125 28.882812 81.089844 27.785156 L 84.171875 29.121094 C 83.3125 30.84375 82.242188 32.105469 80.964844 32.910156 C 79.65625 33.753906 78.21875 34.171875 76.648438 34.171875 C 74.421875 34.171875 72.515625 33.378906 70.929688 31.789062 C 69.335938 30.199219 68.535156 28.285156 68.535156 26.046875 C 68.535156 23.816406 69.335938 21.90625 70.929688 20.320312 C 72.519531 18.730469 74.425781 17.933594 76.652344 17.933594 Z M 81.074219 23.839844 C 80.820312 23.328125 80.324219 22.78125 79.585938 22.210938 C 78.703125 21.574219 77.722656 21.257812 76.636719 21.257812 C 75.542969 21.257812 74.558594 21.574219 73.691406 22.210938 C 72.96875 22.792969 72.480469 23.335938 72.214844 23.839844 Z M 81.074219 23.839844 "/>
<path style=" stroke:none;fill-rule:nonzero;fill:rgb(0%,0%,0%);fill-opacity:1;" d="M 58.984375 18.007812 L 63.027344 18.007812 L 63.027344 21.332031 L 58.984375 21.332031 L 58.984375 27.617188 C 58.984375 29.398438 60.472656 30.851562 62.328125 30.851562 L 65.601562 30.851562 L 65.601562 34.171875 L 62.328125 34.171875 C 58.664062 34.171875 55.679688 31.246094 55.679688 27.617188 L 55.679688 13.101562 L 58.984375 13.101562 Z M 58.984375 18.007812 "/>
<path style=" stroke:none;fill-rule:nonzero;fill:rgb(0%,0%,0%);fill-opacity:1;" d="M 43.917969 34.210938 L 43.917969 24.527344 C 43.917969 20.871094 40.769531 17.972656 36.953125 17.972656 C 33.136719 17.972656 29.988281 20.871094 29.988281 24.527344 L 29.988281 34.210938 L 33.296875 34.210938 L 33.296875 24.527344 C 33.296875 22.773438 34.902344 21.292969 36.953125 21.292969 C 39.003906 21.292969 40.609375 22.773438 40.609375 24.527344 L 40.609375 34.210938 Z M 43.917969 34.210938 "/>
<path style=" stroke:none;fill-rule:nonzero;fill:rgb(0%,0%,0%);fill-opacity:1;" d="M 21.480469 17.972656 L 21.480469 34.210938 L 24.789062 34.210938 L 24.789062 17.972656 Z M 21.480469 17.972656 "/>
<path style=" stroke:none;fill-rule:evenodd;fill:rgb(2.745098%,78.823529%,44.705882%);fill-opacity:1;" d="M 25.503906 13.175781 C 25.503906 14.601562 24.355469 15.757812 22.933594 15.757812 C 21.511719 15.757812 20.359375 14.601562 20.359375 13.175781 C 20.359375 11.75 21.511719 10.589844 22.933594 10.589844 C 24.355469 10.589844 25.503906 11.75 25.503906 13.175781 Z M 25.503906 13.175781 "/>
</g>
</svg>
